<mxfile host="app.diagrams.net" modified="2023-10-25T07:44:54.533Z" agent="Mozilla/5.0 (X11; Ubuntu; Linux x86_64; rv:109.0) Gecko/20100101 Firefox/118.0" etag="_ZjGTJ-2y6yRPEKDAxe3" version="22.0.6" type="device" pages="2">
  <diagram name="CUSTOM_OCRAM" id="mRwf2Tt7gSMkgwhpIQXF">
    <mxGraphModel dx="1285" dy="724" grid="1" gridSize="10" guides="1" tooltips="1" connect="1" arrows="1" fold="1" page="1" pageScale="1" pageWidth="850" pageHeight="1100" math="0" shadow="0">
      <root>
        <mxCell id="0" />
        <mxCell id="1" parent="0" />
        <mxCell id="0eef9Mi7oPhn6ne6af0u-16" style="edgeStyle=orthogonalEdgeStyle;rounded=0;orthogonalLoop=1;jettySize=auto;html=1;exitX=0.5;exitY=1;exitDx=0;exitDy=0;entryX=0.5;entryY=0;entryDx=0;entryDy=0;strokeColor=#999999;" parent="1" source="0eef9Mi7oPhn6ne6af0u-1" target="0eef9Mi7oPhn6ne6af0u-2" edge="1">
          <mxGeometry relative="1" as="geometry" />
        </mxCell>
        <mxCell id="0eef9Mi7oPhn6ne6af0u-1" value="&lt;div&gt;&lt;font style=&quot;font-size: 20px;&quot; color=&quot;#999999&quot;&gt;OCRAM &lt;br&gt;&lt;/font&gt;&lt;/div&gt;&lt;div&gt;&lt;font style=&quot;font-size: 20px;&quot; color=&quot;#999999&quot;&gt;ARRAY&lt;/font&gt;&lt;/div&gt;" style="rounded=0;whiteSpace=wrap;html=1;strokeColor=#999999;" parent="1" vertex="1">
          <mxGeometry x="1390" y="300" width="140" height="320" as="geometry" />
        </mxCell>
        <mxCell id="0eef9Mi7oPhn6ne6af0u-2" value="&lt;font style=&quot;font-size: 20px;&quot; color=&quot;#999999&quot;&gt;dout_reg&lt;br&gt;&lt;/font&gt;" style="rounded=0;whiteSpace=wrap;html=1;strokeColor=#999999;" parent="1" vertex="1">
          <mxGeometry x="1410" y="680" width="100" height="40" as="geometry" />
        </mxCell>
        <mxCell id="0eef9Mi7oPhn6ne6af0u-7" value="&lt;font style=&quot;font-size: 20px;&quot; color=&quot;#999999&quot;&gt;din_reg&lt;br&gt;&lt;/font&gt;" style="rounded=0;whiteSpace=wrap;html=1;strokeColor=#999999;" parent="1" vertex="1">
          <mxGeometry x="1230" y="560" width="100" height="40" as="geometry" />
        </mxCell>
        <mxCell id="0eef9Mi7oPhn6ne6af0u-8" value="&lt;font style=&quot;font-size: 20px;&quot; color=&quot;#999999&quot;&gt;wren_reg&lt;br&gt;&lt;/font&gt;" style="rounded=0;whiteSpace=wrap;html=1;strokeColor=#999999;" parent="1" vertex="1">
          <mxGeometry x="1230" y="480" width="100" height="40" as="geometry" />
        </mxCell>
        <mxCell id="0eef9Mi7oPhn6ne6af0u-9" value="&lt;font style=&quot;font-size: 20px;&quot; color=&quot;#999999&quot;&gt;rden_reg&lt;br&gt;&lt;/font&gt;" style="rounded=0;whiteSpace=wrap;html=1;strokeColor=#999999;" parent="1" vertex="1">
          <mxGeometry x="1230" y="400" width="100" height="40" as="geometry" />
        </mxCell>
        <mxCell id="0eef9Mi7oPhn6ne6af0u-10" value="&lt;font style=&quot;font-size: 20px;&quot; color=&quot;#999999&quot;&gt;addr_reg&lt;br&gt;&lt;/font&gt;" style="rounded=0;whiteSpace=wrap;html=1;strokeColor=#999999;" parent="1" vertex="1">
          <mxGeometry x="1230" y="320" width="100" height="40" as="geometry" />
        </mxCell>
        <mxCell id="0eef9Mi7oPhn6ne6af0u-11" value="" style="triangle;whiteSpace=wrap;html=1;strokeColor=#999999;" parent="1" vertex="1">
          <mxGeometry x="1230" y="350" width="10" height="10" as="geometry" />
        </mxCell>
        <mxCell id="0eef9Mi7oPhn6ne6af0u-12" value="" style="triangle;whiteSpace=wrap;html=1;strokeColor=#999999;" parent="1" vertex="1">
          <mxGeometry x="1230" y="430" width="10" height="10" as="geometry" />
        </mxCell>
        <mxCell id="0eef9Mi7oPhn6ne6af0u-13" value="" style="triangle;whiteSpace=wrap;html=1;strokeColor=#999999;" parent="1" vertex="1">
          <mxGeometry x="1230" y="510" width="10" height="10" as="geometry" />
        </mxCell>
        <mxCell id="0eef9Mi7oPhn6ne6af0u-14" value="" style="triangle;whiteSpace=wrap;html=1;strokeColor=#999999;" parent="1" vertex="1">
          <mxGeometry x="1230" y="590" width="10" height="10" as="geometry" />
        </mxCell>
        <mxCell id="0eef9Mi7oPhn6ne6af0u-15" value="" style="triangle;whiteSpace=wrap;html=1;strokeColor=#999999;" parent="1" vertex="1">
          <mxGeometry x="1410" y="710" width="10" height="10" as="geometry" />
        </mxCell>
        <mxCell id="0eef9Mi7oPhn6ne6af0u-31" style="edgeStyle=orthogonalEdgeStyle;rounded=0;orthogonalLoop=1;jettySize=auto;html=1;exitX=1;exitY=0.5;exitDx=0;exitDy=0;strokeColor=#999999;" parent="1" source="0eef9Mi7oPhn6ne6af0u-44" edge="1">
          <mxGeometry relative="1" as="geometry">
            <mxPoint x="1230" y="500" as="targetPoint" />
            <mxPoint x="1170" y="500" as="sourcePoint" />
          </mxGeometry>
        </mxCell>
        <mxCell id="0eef9Mi7oPhn6ne6af0u-32" style="edgeStyle=orthogonalEdgeStyle;rounded=0;orthogonalLoop=1;jettySize=auto;html=1;exitX=1;exitY=0.5;exitDx=0;exitDy=0;strokeColor=#999999;" parent="1" source="0eef9Mi7oPhn6ne6af0u-43" edge="1">
          <mxGeometry relative="1" as="geometry">
            <mxPoint x="1230" y="420" as="targetPoint" />
            <mxPoint x="1170" y="420" as="sourcePoint" />
          </mxGeometry>
        </mxCell>
        <mxCell id="0eef9Mi7oPhn6ne6af0u-33" style="edgeStyle=orthogonalEdgeStyle;rounded=0;orthogonalLoop=1;jettySize=auto;html=1;exitX=1;exitY=0.5;exitDx=0;exitDy=0;strokeColor=#999999;" parent="1" source="0eef9Mi7oPhn6ne6af0u-42" edge="1">
          <mxGeometry relative="1" as="geometry">
            <mxPoint x="1230" y="340" as="targetPoint" />
            <mxPoint x="1170" y="340" as="sourcePoint" />
          </mxGeometry>
        </mxCell>
        <mxCell id="0eef9Mi7oPhn6ne6af0u-35" style="edgeStyle=orthogonalEdgeStyle;rounded=0;orthogonalLoop=1;jettySize=auto;html=1;exitX=1;exitY=0.5;exitDx=0;exitDy=0;strokeColor=#999999;" parent="1" source="0eef9Mi7oPhn6ne6af0u-45" edge="1">
          <mxGeometry relative="1" as="geometry">
            <mxPoint x="1230" y="580" as="targetPoint" />
            <mxPoint x="1170" y="580" as="sourcePoint" />
          </mxGeometry>
        </mxCell>
        <mxCell id="0eef9Mi7oPhn6ne6af0u-36" style="edgeStyle=orthogonalEdgeStyle;rounded=0;orthogonalLoop=1;jettySize=auto;html=1;exitX=1;exitY=0.5;exitDx=0;exitDy=0;strokeColor=#999999;" parent="1" edge="1">
          <mxGeometry relative="1" as="geometry">
            <mxPoint x="1390" y="499.70000000000005" as="targetPoint" />
            <mxPoint x="1330" y="499.70000000000005" as="sourcePoint" />
          </mxGeometry>
        </mxCell>
        <mxCell id="0eef9Mi7oPhn6ne6af0u-37" style="edgeStyle=orthogonalEdgeStyle;rounded=0;orthogonalLoop=1;jettySize=auto;html=1;exitX=1;exitY=0.5;exitDx=0;exitDy=0;strokeColor=#999999;" parent="1" edge="1">
          <mxGeometry relative="1" as="geometry">
            <mxPoint x="1390" y="419.7" as="targetPoint" />
            <mxPoint x="1330" y="419.7" as="sourcePoint" />
          </mxGeometry>
        </mxCell>
        <mxCell id="0eef9Mi7oPhn6ne6af0u-38" style="edgeStyle=orthogonalEdgeStyle;rounded=0;orthogonalLoop=1;jettySize=auto;html=1;exitX=1;exitY=0.5;exitDx=0;exitDy=0;strokeColor=#999999;" parent="1" edge="1">
          <mxGeometry relative="1" as="geometry">
            <mxPoint x="1390" y="339.7" as="targetPoint" />
            <mxPoint x="1330" y="339.7" as="sourcePoint" />
          </mxGeometry>
        </mxCell>
        <mxCell id="0eef9Mi7oPhn6ne6af0u-39" style="edgeStyle=orthogonalEdgeStyle;rounded=0;orthogonalLoop=1;jettySize=auto;html=1;exitX=1;exitY=0.5;exitDx=0;exitDy=0;strokeColor=#999999;" parent="1" edge="1">
          <mxGeometry relative="1" as="geometry">
            <mxPoint x="1390" y="579.7" as="targetPoint" />
            <mxPoint x="1330" y="579.7" as="sourcePoint" />
          </mxGeometry>
        </mxCell>
        <mxCell id="0eef9Mi7oPhn6ne6af0u-40" style="edgeStyle=orthogonalEdgeStyle;rounded=0;orthogonalLoop=1;jettySize=auto;html=1;strokeColor=#999999;exitX=0;exitY=0.5;exitDx=0;exitDy=0;entryX=1;entryY=0.5;entryDx=0;entryDy=0;" parent="1" source="0eef9Mi7oPhn6ne6af0u-2" target="0eef9Mi7oPhn6ne6af0u-46" edge="1">
          <mxGeometry relative="1" as="geometry">
            <mxPoint x="1170" y="700" as="targetPoint" />
            <mxPoint x="1420" y="700" as="sourcePoint" />
          </mxGeometry>
        </mxCell>
        <mxCell id="0eef9Mi7oPhn6ne6af0u-41" value="" style="rounded=0;whiteSpace=wrap;html=1;fillColor=none;" parent="1" vertex="1">
          <mxGeometry x="1080" y="280" width="480" height="480" as="geometry" />
        </mxCell>
        <mxCell id="0eef9Mi7oPhn6ne6af0u-42" value="&lt;font style=&quot;font-size: 20px;&quot;&gt;address&lt;/font&gt;" style="text;html=1;strokeColor=none;fillColor=none;align=left;verticalAlign=middle;whiteSpace=wrap;rounded=0;" parent="1" vertex="1">
          <mxGeometry x="1090" y="325" width="80" height="30" as="geometry" />
        </mxCell>
        <mxCell id="0eef9Mi7oPhn6ne6af0u-43" value="&lt;font style=&quot;font-size: 20px;&quot;&gt;rden&lt;/font&gt;" style="text;html=1;strokeColor=none;fillColor=none;align=left;verticalAlign=middle;whiteSpace=wrap;rounded=0;" parent="1" vertex="1">
          <mxGeometry x="1090" y="405" width="50" height="30" as="geometry" />
        </mxCell>
        <mxCell id="0eef9Mi7oPhn6ne6af0u-44" value="&lt;font style=&quot;font-size: 20px;&quot;&gt;wren&lt;/font&gt;" style="text;html=1;strokeColor=none;fillColor=none;align=left;verticalAlign=middle;whiteSpace=wrap;rounded=0;" parent="1" vertex="1">
          <mxGeometry x="1090" y="485" width="55" height="30" as="geometry" />
        </mxCell>
        <mxCell id="0eef9Mi7oPhn6ne6af0u-45" value="&lt;font style=&quot;font-size: 20px;&quot;&gt;data&lt;/font&gt;" style="text;html=1;strokeColor=none;fillColor=none;align=left;verticalAlign=middle;whiteSpace=wrap;rounded=0;" parent="1" vertex="1">
          <mxGeometry x="1090" y="565" width="50" height="30" as="geometry" />
        </mxCell>
        <mxCell id="0eef9Mi7oPhn6ne6af0u-46" value="&lt;font style=&quot;font-size: 20px;&quot;&gt;q&lt;/font&gt;" style="text;html=1;strokeColor=none;fillColor=none;align=left;verticalAlign=middle;whiteSpace=wrap;rounded=0;" parent="1" vertex="1">
          <mxGeometry x="1090" y="685" width="20" height="30" as="geometry" />
        </mxCell>
        <mxCell id="0eef9Mi7oPhn6ne6af0u-47" value="&lt;font style=&quot;font-size: 20px;&quot;&gt;1PORT_BLOCKRAM&lt;/font&gt;" style="rounded=0;whiteSpace=wrap;html=1;" parent="1" vertex="1">
          <mxGeometry x="1080" y="240" width="480" height="40" as="geometry" />
        </mxCell>
        <mxCell id="0eef9Mi7oPhn6ne6af0u-80" style="edgeStyle=orthogonalEdgeStyle;rounded=0;orthogonalLoop=1;jettySize=auto;html=1;exitX=0;exitY=0.5;exitDx=0;exitDy=0;entryX=1;entryY=0.5;entryDx=0;entryDy=0;strokeColor=#999999;fontColor=#999999;" parent="1" source="0eef9Mi7oPhn6ne6af0u-61" target="0eef9Mi7oPhn6ne6af0u-48" edge="1">
          <mxGeometry relative="1" as="geometry" />
        </mxCell>
        <mxCell id="0eef9Mi7oPhn6ne6af0u-48" value="&lt;font style=&quot;font-size: 20px;&quot;&gt;readdata_reg&lt;/font&gt;" style="rounded=0;whiteSpace=wrap;html=1;strokeColor=#999999;fontColor=#999999;" parent="1" vertex="1">
          <mxGeometry x="610" y="680" width="140" height="40" as="geometry" />
        </mxCell>
        <mxCell id="0eef9Mi7oPhn6ne6af0u-49" value="" style="triangle;whiteSpace=wrap;html=1;" parent="1" vertex="1">
          <mxGeometry x="1080" y="740" width="20" height="20" as="geometry" />
        </mxCell>
        <mxCell id="0eef9Mi7oPhn6ne6af0u-50" value="" style="triangle;whiteSpace=wrap;html=1;strokeColor=#999999;fontColor=#999999;" parent="1" vertex="1">
          <mxGeometry x="610" y="710" width="10" height="10" as="geometry" />
        </mxCell>
        <mxCell id="0eef9Mi7oPhn6ne6af0u-79" style="edgeStyle=orthogonalEdgeStyle;rounded=0;orthogonalLoop=1;jettySize=auto;html=1;exitX=1;exitY=0.5;exitDx=0;exitDy=0;entryX=0;entryY=0.5;entryDx=0;entryDy=0;strokeColor=#999999;fontColor=#999999;" parent="1" source="0eef9Mi7oPhn6ne6af0u-51" target="0eef9Mi7oPhn6ne6af0u-60" edge="1">
          <mxGeometry relative="1" as="geometry" />
        </mxCell>
        <mxCell id="0eef9Mi7oPhn6ne6af0u-51" value="&lt;font style=&quot;font-size: 20px;&quot;&gt;writedata_reg&lt;/font&gt;" style="rounded=0;whiteSpace=wrap;html=1;strokeColor=#999999;fontColor=#999999;" parent="1" vertex="1">
          <mxGeometry x="610" y="600" width="140" height="40" as="geometry" />
        </mxCell>
        <mxCell id="0eef9Mi7oPhn6ne6af0u-52" value="" style="triangle;whiteSpace=wrap;html=1;strokeColor=#999999;fontColor=#999999;" parent="1" vertex="1">
          <mxGeometry x="610" y="630" width="10" height="10" as="geometry" />
        </mxCell>
        <mxCell id="0eef9Mi7oPhn6ne6af0u-75" style="edgeStyle=orthogonalEdgeStyle;rounded=0;orthogonalLoop=1;jettySize=auto;html=1;exitX=1;exitY=0.5;exitDx=0;exitDy=0;entryX=0;entryY=0.5;entryDx=0;entryDy=0;strokeColor=#999999;fontColor=#999999;" parent="1" source="0eef9Mi7oPhn6ne6af0u-53" target="0eef9Mi7oPhn6ne6af0u-57" edge="1">
          <mxGeometry relative="1" as="geometry">
            <mxPoint x="870" y="340.33333333333337" as="targetPoint" />
            <Array as="points">
              <mxPoint x="780" y="340" />
              <mxPoint x="780" y="340" />
            </Array>
          </mxGeometry>
        </mxCell>
        <mxCell id="0eef9Mi7oPhn6ne6af0u-53" value="&lt;font style=&quot;font-size: 20px;&quot;&gt;address_reg&lt;/font&gt;" style="rounded=0;whiteSpace=wrap;html=1;strokeColor=#999999;fontColor=#999999;" parent="1" vertex="1">
          <mxGeometry x="610" y="320" width="140" height="40" as="geometry" />
        </mxCell>
        <mxCell id="0eef9Mi7oPhn6ne6af0u-54" value="" style="triangle;whiteSpace=wrap;html=1;strokeColor=#999999;fontColor=#999999;" parent="1" vertex="1">
          <mxGeometry x="610" y="350" width="10" height="10" as="geometry" />
        </mxCell>
        <mxCell id="0eef9Mi7oPhn6ne6af0u-55" value="&lt;font style=&quot;font-size: 20px;&quot;&gt;FSM&lt;/font&gt;" style="rounded=0;whiteSpace=wrap;html=1;strokeColor=#999999;fontColor=#999999;" parent="1" vertex="1">
          <mxGeometry x="610" y="400" width="140" height="160" as="geometry" />
        </mxCell>
        <mxCell id="0eef9Mi7oPhn6ne6af0u-57" value="&lt;font style=&quot;font-size: 20px;&quot;&gt;blockram_address&lt;/font&gt;" style="text;html=1;strokeColor=none;fillColor=none;align=right;verticalAlign=middle;whiteSpace=wrap;rounded=0;" parent="1" vertex="1">
          <mxGeometry x="816" y="325" width="174" height="30" as="geometry" />
        </mxCell>
        <mxCell id="0eef9Mi7oPhn6ne6af0u-77" style="edgeStyle=orthogonalEdgeStyle;rounded=0;orthogonalLoop=1;jettySize=auto;html=1;exitX=0;exitY=0.5;exitDx=0;exitDy=0;entryX=0;entryY=0.5;entryDx=0;entryDy=0;strokeColor=#999999;fontColor=#999999;" parent="1" target="0eef9Mi7oPhn6ne6af0u-58" edge="1">
          <mxGeometry relative="1" as="geometry">
            <mxPoint x="750" y="420" as="sourcePoint" />
            <Array as="points">
              <mxPoint x="780" y="420" />
              <mxPoint x="780" y="420" />
            </Array>
          </mxGeometry>
        </mxCell>
        <mxCell id="0eef9Mi7oPhn6ne6af0u-58" value="&lt;font style=&quot;font-size: 20px;&quot;&gt;blockram_&lt;/font&gt;&lt;font style=&quot;font-size: 20px;&quot;&gt;rden&lt;/font&gt;" style="text;html=1;strokeColor=none;fillColor=none;align=right;verticalAlign=middle;whiteSpace=wrap;rounded=0;" parent="1" vertex="1">
          <mxGeometry x="847" y="405" width="143" height="30" as="geometry" />
        </mxCell>
        <mxCell id="0eef9Mi7oPhn6ne6af0u-78" style="edgeStyle=orthogonalEdgeStyle;rounded=0;orthogonalLoop=1;jettySize=auto;html=1;exitX=0;exitY=0.5;exitDx=0;exitDy=0;entryX=0;entryY=0.5;entryDx=0;entryDy=0;strokeColor=#999999;fontColor=#999999;" parent="1" target="0eef9Mi7oPhn6ne6af0u-59" edge="1">
          <mxGeometry relative="1" as="geometry">
            <mxPoint x="750" y="500" as="sourcePoint" />
            <Array as="points">
              <mxPoint x="790" y="500" />
              <mxPoint x="790" y="500" />
            </Array>
          </mxGeometry>
        </mxCell>
        <mxCell id="0eef9Mi7oPhn6ne6af0u-59" value="&lt;font style=&quot;font-size: 20px;&quot;&gt;blockram_&lt;/font&gt;&lt;font style=&quot;font-size: 20px;&quot;&gt;wren&lt;/font&gt;" style="text;html=1;strokeColor=none;fillColor=none;align=right;verticalAlign=middle;whiteSpace=wrap;rounded=0;" parent="1" vertex="1">
          <mxGeometry x="845" y="485" width="145" height="30" as="geometry" />
        </mxCell>
        <mxCell id="0eef9Mi7oPhn6ne6af0u-60" value="&lt;font style=&quot;font-size: 20px;&quot;&gt;blockram_&lt;/font&gt;&lt;font style=&quot;font-size: 20px;&quot;&gt;data&lt;/font&gt;" style="text;html=1;strokeColor=none;fillColor=none;align=right;verticalAlign=middle;whiteSpace=wrap;rounded=0;" parent="1" vertex="1">
          <mxGeometry x="850" y="605" width="140" height="30" as="geometry" />
        </mxCell>
        <mxCell id="0eef9Mi7oPhn6ne6af0u-61" value="&lt;font style=&quot;font-size: 20px;&quot;&gt;blockram_&lt;/font&gt;&lt;font style=&quot;font-size: 20px;&quot;&gt;q&lt;/font&gt;" style="text;html=1;strokeColor=none;fillColor=none;align=right;verticalAlign=middle;whiteSpace=wrap;rounded=0;" parent="1" vertex="1">
          <mxGeometry x="876" y="685" width="114" height="30" as="geometry" />
        </mxCell>
        <mxCell id="0eef9Mi7oPhn6ne6af0u-62" value="" style="triangle;whiteSpace=wrap;html=1;direction=west;strokeColor=#999999;fontColor=#999999;" parent="1" vertex="1">
          <mxGeometry x="740" y="545" width="10" height="10" as="geometry" />
        </mxCell>
        <mxCell id="0eef9Mi7oPhn6ne6af0u-81" style="edgeStyle=orthogonalEdgeStyle;rounded=0;orthogonalLoop=1;jettySize=auto;html=1;exitX=1;exitY=0.5;exitDx=0;exitDy=0;strokeColor=#999999;fontColor=#999999;" parent="1" source="0eef9Mi7oPhn6ne6af0u-64" target="0eef9Mi7oPhn6ne6af0u-53" edge="1">
          <mxGeometry relative="1" as="geometry" />
        </mxCell>
        <mxCell id="0eef9Mi7oPhn6ne6af0u-64" value="&lt;font style=&quot;font-size: 20px;&quot;&gt;avm_address&lt;/font&gt;" style="text;html=1;strokeColor=none;fillColor=none;align=left;verticalAlign=middle;whiteSpace=wrap;rounded=0;" parent="1" vertex="1">
          <mxGeometry x="370" y="325" width="130" height="30" as="geometry" />
        </mxCell>
        <mxCell id="0eef9Mi7oPhn6ne6af0u-82" style="edgeStyle=orthogonalEdgeStyle;rounded=0;orthogonalLoop=1;jettySize=auto;html=1;exitX=1;exitY=0.5;exitDx=0;exitDy=0;strokeColor=#999999;fontColor=#999999;" parent="1" source="0eef9Mi7oPhn6ne6af0u-65" edge="1">
          <mxGeometry relative="1" as="geometry">
            <mxPoint x="610" y="420" as="targetPoint" />
          </mxGeometry>
        </mxCell>
        <mxCell id="0eef9Mi7oPhn6ne6af0u-65" value="&lt;font style=&quot;font-size: 20px;&quot;&gt;avm_read&lt;/font&gt;" style="text;html=1;strokeColor=none;fillColor=none;align=left;verticalAlign=middle;whiteSpace=wrap;rounded=0;" parent="1" vertex="1">
          <mxGeometry x="370" y="405" width="100" height="30" as="geometry" />
        </mxCell>
        <mxCell id="0eef9Mi7oPhn6ne6af0u-83" style="edgeStyle=orthogonalEdgeStyle;rounded=0;orthogonalLoop=1;jettySize=auto;html=1;exitX=1;exitY=0.5;exitDx=0;exitDy=0;strokeColor=#999999;fontColor=#999999;" parent="1" source="0eef9Mi7oPhn6ne6af0u-69" edge="1">
          <mxGeometry relative="1" as="geometry">
            <mxPoint x="610" y="460.33333333333337" as="targetPoint" />
          </mxGeometry>
        </mxCell>
        <mxCell id="0eef9Mi7oPhn6ne6af0u-69" value="&lt;font style=&quot;font-size: 20px;&quot;&gt;avm_write&lt;/font&gt;" style="text;html=1;strokeColor=none;fillColor=none;align=left;verticalAlign=middle;whiteSpace=wrap;rounded=0;" parent="1" vertex="1">
          <mxGeometry x="370" y="445" width="100" height="30" as="geometry" />
        </mxCell>
        <mxCell id="0eef9Mi7oPhn6ne6af0u-84" style="edgeStyle=orthogonalEdgeStyle;rounded=0;orthogonalLoop=1;jettySize=auto;html=1;exitX=1;exitY=0.5;exitDx=0;exitDy=0;entryX=1;entryY=0.5;entryDx=0;entryDy=0;strokeColor=#999999;fontColor=#999999;" parent="1" target="0eef9Mi7oPhn6ne6af0u-70" edge="1">
          <mxGeometry relative="1" as="geometry">
            <mxPoint x="610" y="500.33333333333337" as="sourcePoint" />
            <Array as="points">
              <mxPoint x="580" y="500" />
              <mxPoint x="580" y="500" />
            </Array>
          </mxGeometry>
        </mxCell>
        <mxCell id="0eef9Mi7oPhn6ne6af0u-70" value="&lt;font style=&quot;font-size: 20px;&quot;&gt;avm_waitrequest&lt;/font&gt;" style="text;html=1;strokeColor=none;fillColor=none;align=left;verticalAlign=middle;whiteSpace=wrap;rounded=0;" parent="1" vertex="1">
          <mxGeometry x="370" y="485" width="160" height="30" as="geometry" />
        </mxCell>
        <mxCell id="0eef9Mi7oPhn6ne6af0u-85" style="edgeStyle=orthogonalEdgeStyle;rounded=0;orthogonalLoop=1;jettySize=auto;html=1;exitX=1;exitY=0.5;exitDx=0;exitDy=0;entryX=1;entryY=0.5;entryDx=0;entryDy=0;strokeColor=#999999;fontColor=#999999;" parent="1" target="0eef9Mi7oPhn6ne6af0u-72" edge="1">
          <mxGeometry relative="1" as="geometry">
            <mxPoint x="610" y="540.3333333333334" as="sourcePoint" />
            <Array as="points">
              <mxPoint x="590" y="540" />
              <mxPoint x="590" y="540" />
            </Array>
          </mxGeometry>
        </mxCell>
        <mxCell id="0eef9Mi7oPhn6ne6af0u-72" value="&lt;font style=&quot;font-size: 20px;&quot;&gt;avm_readdatavalid&lt;/font&gt;" style="text;html=1;strokeColor=none;fillColor=none;align=left;verticalAlign=middle;whiteSpace=wrap;rounded=0;" parent="1" vertex="1">
          <mxGeometry x="370" y="525" width="180" height="30" as="geometry" />
        </mxCell>
        <mxCell id="0eef9Mi7oPhn6ne6af0u-86" style="edgeStyle=orthogonalEdgeStyle;rounded=0;orthogonalLoop=1;jettySize=auto;html=1;exitX=1;exitY=0.5;exitDx=0;exitDy=0;entryX=0;entryY=0.5;entryDx=0;entryDy=0;strokeColor=#999999;fontColor=#999999;" parent="1" source="0eef9Mi7oPhn6ne6af0u-73" target="0eef9Mi7oPhn6ne6af0u-51" edge="1">
          <mxGeometry relative="1" as="geometry" />
        </mxCell>
        <mxCell id="0eef9Mi7oPhn6ne6af0u-73" value="&lt;font style=&quot;font-size: 20px;&quot;&gt;avm_writedata&lt;/font&gt;" style="text;html=1;strokeColor=none;fillColor=none;align=left;verticalAlign=middle;whiteSpace=wrap;rounded=0;" parent="1" vertex="1">
          <mxGeometry x="370" y="605" width="140" height="30" as="geometry" />
        </mxCell>
        <mxCell id="0eef9Mi7oPhn6ne6af0u-87" style="edgeStyle=orthogonalEdgeStyle;rounded=0;orthogonalLoop=1;jettySize=auto;html=1;exitX=0;exitY=0.5;exitDx=0;exitDy=0;entryX=1;entryY=0.5;entryDx=0;entryDy=0;strokeColor=#999999;fontColor=#999999;" parent="1" source="0eef9Mi7oPhn6ne6af0u-48" target="0eef9Mi7oPhn6ne6af0u-74" edge="1">
          <mxGeometry relative="1" as="geometry" />
        </mxCell>
        <mxCell id="0eef9Mi7oPhn6ne6af0u-74" value="&lt;font style=&quot;font-size: 20px;&quot;&gt;avm_readdata&lt;/font&gt;" style="text;html=1;strokeColor=none;fillColor=none;align=left;verticalAlign=middle;whiteSpace=wrap;rounded=0;" parent="1" vertex="1">
          <mxGeometry x="370" y="685" width="140" height="30" as="geometry" />
        </mxCell>
        <mxCell id="0eef9Mi7oPhn6ne6af0u-88" value="" style="rounded=0;whiteSpace=wrap;html=1;fillColor=none;" parent="1" vertex="1">
          <mxGeometry x="360" y="280" width="640" height="480" as="geometry" />
        </mxCell>
        <mxCell id="0eef9Mi7oPhn6ne6af0u-89" value="&lt;font style=&quot;font-size: 20px;&quot;&gt;AVM_TO_BLOCKRAM_CONVERTER&lt;/font&gt;" style="rounded=0;whiteSpace=wrap;html=1;" parent="1" vertex="1">
          <mxGeometry x="360" y="240" width="640" height="40" as="geometry" />
        </mxCell>
        <mxCell id="0eef9Mi7oPhn6ne6af0u-90" value="" style="endArrow=classic;html=1;rounded=0;" parent="1" edge="1">
          <mxGeometry width="50" height="50" relative="1" as="geometry">
            <mxPoint x="1000" y="339.63" as="sourcePoint" />
            <mxPoint x="1080" y="339.63" as="targetPoint" />
          </mxGeometry>
        </mxCell>
        <mxCell id="0eef9Mi7oPhn6ne6af0u-91" value="" style="endArrow=classic;html=1;rounded=0;" parent="1" edge="1">
          <mxGeometry width="50" height="50" relative="1" as="geometry">
            <mxPoint x="1000" y="419.63" as="sourcePoint" />
            <mxPoint x="1080" y="419.63" as="targetPoint" />
          </mxGeometry>
        </mxCell>
        <mxCell id="0eef9Mi7oPhn6ne6af0u-92" value="" style="endArrow=classic;html=1;rounded=0;" parent="1" edge="1">
          <mxGeometry width="50" height="50" relative="1" as="geometry">
            <mxPoint x="1000" y="499.63" as="sourcePoint" />
            <mxPoint x="1080" y="499.63" as="targetPoint" />
          </mxGeometry>
        </mxCell>
        <mxCell id="0eef9Mi7oPhn6ne6af0u-93" value="" style="endArrow=classic;html=1;rounded=0;" parent="1" edge="1">
          <mxGeometry width="50" height="50" relative="1" as="geometry">
            <mxPoint x="1000" y="620" as="sourcePoint" />
            <mxPoint x="1080" y="580" as="targetPoint" />
            <Array as="points">
              <mxPoint x="1040" y="620" />
              <mxPoint x="1040" y="580" />
            </Array>
          </mxGeometry>
        </mxCell>
        <mxCell id="0eef9Mi7oPhn6ne6af0u-94" value="" style="endArrow=classic;html=1;rounded=0;" parent="1" edge="1">
          <mxGeometry width="50" height="50" relative="1" as="geometry">
            <mxPoint x="1080" y="699.63" as="sourcePoint" />
            <mxPoint x="1000" y="699.63" as="targetPoint" />
          </mxGeometry>
        </mxCell>
        <mxCell id="0eef9Mi7oPhn6ne6af0u-96" value="" style="shape=flexArrow;endArrow=classic;startArrow=classic;html=1;rounded=0;startWidth=37.241379310344826;startSize=12.710344827586207;width=40;endWidth=37.241379310344826;endSize=12.710344827586207;fillColor=#CCCCCC;" parent="1" edge="1">
          <mxGeometry width="100" height="100" relative="1" as="geometry">
            <mxPoint x="230" y="760" as="sourcePoint" />
            <mxPoint x="230" y="240" as="targetPoint" />
          </mxGeometry>
        </mxCell>
        <mxCell id="0eef9Mi7oPhn6ne6af0u-98" value="&lt;font style=&quot;font-size: 20px;&quot;&gt;AVALON BUS&lt;/font&gt;" style="text;html=1;strokeColor=none;fillColor=none;align=center;verticalAlign=middle;whiteSpace=wrap;rounded=0;rotation=-90;" parent="1" vertex="1">
          <mxGeometry x="162" y="485" width="140" height="30" as="geometry" />
        </mxCell>
        <mxCell id="0eef9Mi7oPhn6ne6af0u-101" value="" style="endArrow=classic;html=1;rounded=0;" parent="1" edge="1">
          <mxGeometry width="50" height="50" relative="1" as="geometry">
            <mxPoint x="250" y="340" as="sourcePoint" />
            <mxPoint x="320" y="340" as="targetPoint" />
          </mxGeometry>
        </mxCell>
        <mxCell id="0eef9Mi7oPhn6ne6af0u-106" value="" style="endArrow=classic;html=1;rounded=0;" parent="1" edge="1">
          <mxGeometry width="50" height="50" relative="1" as="geometry">
            <mxPoint x="250" y="420.13" as="sourcePoint" />
            <mxPoint x="320" y="420" as="targetPoint" />
          </mxGeometry>
        </mxCell>
        <mxCell id="0eef9Mi7oPhn6ne6af0u-107" value="" style="endArrow=classic;html=1;rounded=0;" parent="1" edge="1">
          <mxGeometry width="50" height="50" relative="1" as="geometry">
            <mxPoint x="250" y="460.13" as="sourcePoint" />
            <mxPoint x="320" y="460" as="targetPoint" />
          </mxGeometry>
        </mxCell>
        <mxCell id="0eef9Mi7oPhn6ne6af0u-108" value="" style="endArrow=classic;html=1;rounded=0;" parent="1" edge="1">
          <mxGeometry width="50" height="50" relative="1" as="geometry">
            <mxPoint x="320" y="500" as="sourcePoint" />
            <mxPoint x="250" y="500.13" as="targetPoint" />
          </mxGeometry>
        </mxCell>
        <mxCell id="0eef9Mi7oPhn6ne6af0u-109" value="" style="endArrow=classic;html=1;rounded=0;" parent="1" edge="1">
          <mxGeometry width="50" height="50" relative="1" as="geometry">
            <mxPoint x="320" y="540" as="sourcePoint" />
            <mxPoint x="250" y="540.13" as="targetPoint" />
          </mxGeometry>
        </mxCell>
        <mxCell id="0eef9Mi7oPhn6ne6af0u-110" value="" style="endArrow=classic;html=1;rounded=0;" parent="1" edge="1">
          <mxGeometry width="50" height="50" relative="1" as="geometry">
            <mxPoint x="250" y="620.4300000000001" as="sourcePoint" />
            <mxPoint x="320" y="620" as="targetPoint" />
          </mxGeometry>
        </mxCell>
        <mxCell id="0eef9Mi7oPhn6ne6af0u-112" value="" style="triangle;whiteSpace=wrap;html=1;" parent="1" vertex="1">
          <mxGeometry x="360" y="740" width="20" height="20" as="geometry" />
        </mxCell>
        <mxCell id="0eef9Mi7oPhn6ne6af0u-113" value="" style="endArrow=classic;html=1;rounded=0;" parent="1" edge="1">
          <mxGeometry width="50" height="50" relative="1" as="geometry">
            <mxPoint x="320" y="700" as="sourcePoint" />
            <mxPoint x="250" y="700.13" as="targetPoint" />
          </mxGeometry>
        </mxCell>
        <mxCell id="0eef9Mi7oPhn6ne6af0u-114" value="" style="endArrow=classic;html=1;rounded=0;" parent="1" edge="1">
          <mxGeometry width="50" height="50" relative="1" as="geometry">
            <mxPoint x="320" y="339.57" as="sourcePoint" />
            <mxPoint x="360" y="339.57" as="targetPoint" />
          </mxGeometry>
        </mxCell>
        <mxCell id="0eef9Mi7oPhn6ne6af0u-115" value="" style="endArrow=classic;html=1;rounded=0;" parent="1" edge="1">
          <mxGeometry width="50" height="50" relative="1" as="geometry">
            <mxPoint x="320" y="419.57" as="sourcePoint" />
            <mxPoint x="360" y="419.57" as="targetPoint" />
          </mxGeometry>
        </mxCell>
        <mxCell id="0eef9Mi7oPhn6ne6af0u-116" value="" style="endArrow=classic;html=1;rounded=0;" parent="1" edge="1">
          <mxGeometry width="50" height="50" relative="1" as="geometry">
            <mxPoint x="320" y="459.57" as="sourcePoint" />
            <mxPoint x="360" y="459.57" as="targetPoint" />
          </mxGeometry>
        </mxCell>
        <mxCell id="0eef9Mi7oPhn6ne6af0u-117" value="" style="endArrow=classic;html=1;rounded=0;" parent="1" edge="1">
          <mxGeometry width="50" height="50" relative="1" as="geometry">
            <mxPoint x="360" y="499.57" as="sourcePoint" />
            <mxPoint x="320" y="499.57" as="targetPoint" />
          </mxGeometry>
        </mxCell>
        <mxCell id="0eef9Mi7oPhn6ne6af0u-118" value="" style="endArrow=classic;html=1;rounded=0;" parent="1" edge="1">
          <mxGeometry width="50" height="50" relative="1" as="geometry">
            <mxPoint x="360" y="539.5699999999999" as="sourcePoint" />
            <mxPoint x="320" y="539.5699999999999" as="targetPoint" />
          </mxGeometry>
        </mxCell>
        <mxCell id="0eef9Mi7oPhn6ne6af0u-119" value="" style="endArrow=classic;html=1;rounded=0;" parent="1" edge="1">
          <mxGeometry width="50" height="50" relative="1" as="geometry">
            <mxPoint x="360" y="699.5699999999999" as="sourcePoint" />
            <mxPoint x="320" y="699.5699999999999" as="targetPoint" />
          </mxGeometry>
        </mxCell>
        <mxCell id="0eef9Mi7oPhn6ne6af0u-120" value="" style="endArrow=classic;html=1;rounded=0;" parent="1" edge="1">
          <mxGeometry width="50" height="50" relative="1" as="geometry">
            <mxPoint x="320" y="620" as="sourcePoint" />
            <mxPoint x="360" y="620" as="targetPoint" />
          </mxGeometry>
        </mxCell>
        <mxCell id="0eef9Mi7oPhn6ne6af0u-121" value="" style="rounded=0;whiteSpace=wrap;html=1;fillColor=none;strokeWidth=2;strokeColor=#FF0000;" parent="1" vertex="1">
          <mxGeometry x="320" y="190" width="1280" height="610" as="geometry" />
        </mxCell>
        <mxCell id="0eef9Mi7oPhn6ne6af0u-122" value="&lt;font color=&quot;#ff0000&quot; style=&quot;font-size: 20px;&quot;&gt;CUSTOM_OCRAM&lt;/font&gt;" style="rounded=0;whiteSpace=wrap;html=1;strokeWidth=2;strokeColor=#FF0000;" parent="1" vertex="1">
          <mxGeometry x="320" y="160" width="1280" height="40" as="geometry" />
        </mxCell>
      </root>
    </mxGraphModel>
  </diagram>
  <diagram id="vuvr-x9UL1TBioMI8a08" name="AVM_TO_BLOCKRAM_CONVERTER: FSM">
    <mxGraphModel dx="1744" dy="983" grid="1" gridSize="10" guides="1" tooltips="1" connect="1" arrows="1" fold="1" page="1" pageScale="1" pageWidth="850" pageHeight="1100" math="0" shadow="0">
      <root>
        <mxCell id="0" />
        <mxCell id="1" parent="0" />
        <mxCell id="e3K_jpvlUAZGzUgC67zU-6" style="edgeStyle=orthogonalEdgeStyle;rounded=0;orthogonalLoop=1;jettySize=auto;html=1;exitX=0.5;exitY=1;exitDx=0;exitDy=0;" parent="1" source="VhY47335ThIellnP8vaE-1" edge="1">
          <mxGeometry relative="1" as="geometry">
            <mxPoint x="240" y="420" as="targetPoint" />
            <Array as="points">
              <mxPoint x="240" y="400" />
              <mxPoint x="240" y="400" />
            </Array>
          </mxGeometry>
        </mxCell>
        <mxCell id="y8BEp6VOh7PGQdKIOAHJ-1" style="edgeStyle=orthogonalEdgeStyle;rounded=0;orthogonalLoop=1;jettySize=auto;html=1;entryX=1;entryY=0.5;entryDx=0;entryDy=0;" parent="1" target="VhY47335ThIellnP8vaE-1" edge="1">
          <mxGeometry relative="1" as="geometry">
            <mxPoint x="520" y="330" as="sourcePoint" />
          </mxGeometry>
        </mxCell>
        <mxCell id="VhY47335ThIellnP8vaE-1" value="&lt;div style=&quot;font-size: 20px;&quot;&gt;&lt;font style=&quot;font-size: 20px;&quot;&gt;writedata_enable&lt;/font&gt;&lt;/div&gt;&lt;div style=&quot;font-size: 20px;&quot;&gt;&lt;font style=&quot;font-size: 20px;&quot;&gt;address_enable&lt;font style=&quot;font-size: 20px;&quot;&gt;&lt;br&gt;&lt;/font&gt;&lt;/font&gt;&lt;/div&gt;" style="rounded=0;whiteSpace=wrap;html=1;" parent="1" vertex="1">
          <mxGeometry x="140" y="300" width="200" height="60" as="geometry" />
        </mxCell>
        <mxCell id="VhY47335ThIellnP8vaE-2" value="&lt;font style=&quot;font-size: 20px;&quot;&gt;IDLE&lt;/font&gt;" style="rounded=0;whiteSpace=wrap;html=1;" parent="1" vertex="1">
          <mxGeometry x="140" y="260" width="200" height="40" as="geometry" />
        </mxCell>
        <mxCell id="e3K_jpvlUAZGzUgC67zU-2" value="0" style="edgeStyle=orthogonalEdgeStyle;rounded=0;orthogonalLoop=1;jettySize=auto;html=1;exitX=1;exitY=0.5;exitDx=0;exitDy=0;entryX=0;entryY=0.5;entryDx=0;entryDy=0;" parent="1" source="w5SIX4CYdtg85TaAh0DZ-1" target="e3K_jpvlUAZGzUgC67zU-1" edge="1">
          <mxGeometry x="-0.75" relative="1" as="geometry">
            <mxPoint as="offset" />
          </mxGeometry>
        </mxCell>
        <mxCell id="V8YZ5hTkk5WyEVAx0g9a-1" value="1" style="edgeStyle=orthogonalEdgeStyle;rounded=0;orthogonalLoop=1;jettySize=auto;html=1;exitX=0.5;exitY=1;exitDx=0;exitDy=0;entryX=0.5;entryY=0;entryDx=0;entryDy=0;" parent="1" source="w5SIX4CYdtg85TaAh0DZ-1" target="QC0Fhj5VWblVltqkyniX-2" edge="1">
          <mxGeometry relative="1" as="geometry" />
        </mxCell>
        <mxCell id="y8BEp6VOh7PGQdKIOAHJ-6" style="edgeStyle=orthogonalEdgeStyle;rounded=0;orthogonalLoop=1;jettySize=auto;html=1;exitX=0.5;exitY=0;exitDx=0;exitDy=0;entryX=0.5;entryY=0;entryDx=0;entryDy=0;" parent="1" target="w5SIX4CYdtg85TaAh0DZ-1" edge="1">
          <mxGeometry relative="1" as="geometry">
            <mxPoint x="240.43478260869574" y="420" as="sourcePoint" />
            <Array as="points">
              <mxPoint x="240" y="451" />
            </Array>
          </mxGeometry>
        </mxCell>
        <mxCell id="w5SIX4CYdtg85TaAh0DZ-1" value="&lt;font style=&quot;font-size: 20px;&quot;&gt;avm_read&lt;/font&gt;" style="rhombus;whiteSpace=wrap;html=1;" parent="1" vertex="1">
          <mxGeometry x="170" y="480" width="140" height="80" as="geometry" />
        </mxCell>
        <mxCell id="e3K_jpvlUAZGzUgC67zU-3" value="0" style="edgeStyle=orthogonalEdgeStyle;rounded=0;orthogonalLoop=1;jettySize=auto;html=1;exitX=0.5;exitY=0;exitDx=0;exitDy=0;" parent="1" source="e3K_jpvlUAZGzUgC67zU-1" edge="1">
          <mxGeometry x="-0.7778" relative="1" as="geometry">
            <mxPoint x="520" y="330" as="targetPoint" />
            <mxPoint as="offset" />
          </mxGeometry>
        </mxCell>
        <mxCell id="y8BEp6VOh7PGQdKIOAHJ-9" value="1" style="edgeStyle=orthogonalEdgeStyle;rounded=0;orthogonalLoop=1;jettySize=auto;html=1;exitX=0.5;exitY=1;exitDx=0;exitDy=0;entryX=0.5;entryY=0;entryDx=0;entryDy=0;" parent="1" source="e3K_jpvlUAZGzUgC67zU-1" target="y8BEp6VOh7PGQdKIOAHJ-8" edge="1">
          <mxGeometry relative="1" as="geometry" />
        </mxCell>
        <mxCell id="e3K_jpvlUAZGzUgC67zU-1" value="&lt;font style=&quot;font-size: 20px;&quot;&gt;avm_write&lt;/font&gt;" style="rhombus;whiteSpace=wrap;html=1;" parent="1" vertex="1">
          <mxGeometry x="450" y="480" width="140" height="80" as="geometry" />
        </mxCell>
        <mxCell id="LNQT6dG6mWMsPuXykQ5o-5" style="edgeStyle=orthogonalEdgeStyle;rounded=0;orthogonalLoop=1;jettySize=auto;html=1;exitX=0.5;exitY=1;exitDx=0;exitDy=0;" parent="1" source="LNQT6dG6mWMsPuXykQ5o-1" edge="1">
          <mxGeometry relative="1" as="geometry">
            <mxPoint x="520" y="230" as="sourcePoint" />
            <mxPoint x="520" y="330" as="targetPoint" />
            <Array as="points" />
          </mxGeometry>
        </mxCell>
        <mxCell id="LNQT6dG6mWMsPuXykQ5o-1" value="" style="rounded=0;whiteSpace=wrap;html=1;" parent="1" vertex="1">
          <mxGeometry x="420" y="160" width="200" height="60" as="geometry" />
        </mxCell>
        <mxCell id="LNQT6dG6mWMsPuXykQ5o-2" style="edgeStyle=orthogonalEdgeStyle;rounded=0;orthogonalLoop=1;jettySize=auto;html=1;entryX=0.5;entryY=0;entryDx=0;entryDy=0;dashed=1;" parent="1" target="LNQT6dG6mWMsPuXykQ5o-3" edge="1">
          <mxGeometry relative="1" as="geometry">
            <mxPoint x="520" y="60" as="sourcePoint" />
            <Array as="points" />
          </mxGeometry>
        </mxCell>
        <mxCell id="LNQT6dG6mWMsPuXykQ5o-3" value="&lt;font style=&quot;font-size: 20px;&quot;&gt;RESET&lt;/font&gt;" style="rounded=0;whiteSpace=wrap;html=1;" parent="1" vertex="1">
          <mxGeometry x="420" y="120" width="200" height="40" as="geometry" />
        </mxCell>
        <mxCell id="LNQT6dG6mWMsPuXykQ5o-4" value="&lt;font style=&quot;font-size: 20px;&quot;&gt;reset&lt;/font&gt;" style="text;html=1;align=center;verticalAlign=middle;resizable=0;points=[];autosize=1;strokeColor=none;fillColor=none;" parent="1" vertex="1">
          <mxGeometry x="485" y="20" width="70" height="40" as="geometry" />
        </mxCell>
        <mxCell id="Y2vqOzMS-aSpltklQPGb-3" style="edgeStyle=orthogonalEdgeStyle;rounded=0;orthogonalLoop=1;jettySize=auto;html=1;exitX=0.5;exitY=1;exitDx=0;exitDy=0;entryX=0.5;entryY=0;entryDx=0;entryDy=0;" parent="1" source="QC0Fhj5VWblVltqkyniX-1" target="Y2vqOzMS-aSpltklQPGb-2" edge="1">
          <mxGeometry relative="1" as="geometry" />
        </mxCell>
        <mxCell id="QC0Fhj5VWblVltqkyniX-1" value="&lt;div style=&quot;font-size: 20px;&quot;&gt;&lt;font style=&quot;font-size: 20px;&quot;&gt;avm_waitrequest&lt;/font&gt;&lt;/div&gt;&lt;div style=&quot;font-size: 20px;&quot;&gt;&lt;font style=&quot;font-size: 20px;&quot;&gt;blockram_rden&lt;br&gt;&lt;/font&gt;&lt;/div&gt;" style="rounded=0;whiteSpace=wrap;html=1;" parent="1" vertex="1">
          <mxGeometry x="140" y="660" width="200" height="60" as="geometry" />
        </mxCell>
        <mxCell id="QC0Fhj5VWblVltqkyniX-2" value="&lt;font style=&quot;font-size: 20px;&quot;&gt;READ_CMD&lt;/font&gt;" style="rounded=0;whiteSpace=wrap;html=1;" parent="1" vertex="1">
          <mxGeometry x="140" y="620" width="200" height="40" as="geometry" />
        </mxCell>
        <mxCell id="qYjdrTXR6AYdo6lmm8bT-3" style="edgeStyle=orthogonalEdgeStyle;rounded=0;orthogonalLoop=1;jettySize=auto;html=1;exitX=0.5;exitY=1;exitDx=0;exitDy=0;entryX=0.5;entryY=0;entryDx=0;entryDy=0;" parent="1" source="Y2vqOzMS-aSpltklQPGb-1" target="qYjdrTXR6AYdo6lmm8bT-2" edge="1">
          <mxGeometry relative="1" as="geometry" />
        </mxCell>
        <mxCell id="Y2vqOzMS-aSpltklQPGb-1" value="&lt;div style=&quot;font-size: 20px;&quot;&gt;&lt;font style=&quot;font-size: 20px;&quot;&gt;avm_waitrequest&lt;/font&gt;&lt;/div&gt;" style="rounded=0;whiteSpace=wrap;html=1;" parent="1" vertex="1">
          <mxGeometry x="140" y="820" width="200" height="40" as="geometry" />
        </mxCell>
        <mxCell id="Y2vqOzMS-aSpltklQPGb-2" value="&lt;font style=&quot;font-size: 20px;&quot;&gt;READ_WAIT&lt;/font&gt;" style="rounded=0;whiteSpace=wrap;html=1;" parent="1" vertex="1">
          <mxGeometry x="140" y="780" width="200" height="40" as="geometry" />
        </mxCell>
        <mxCell id="y8BEp6VOh7PGQdKIOAHJ-4" style="edgeStyle=orthogonalEdgeStyle;rounded=0;orthogonalLoop=1;jettySize=auto;html=1;exitX=0.5;exitY=1;exitDx=0;exitDy=0;entryX=0.5;entryY=0;entryDx=0;entryDy=0;" parent="1" source="qYjdrTXR6AYdo6lmm8bT-1" target="y8BEp6VOh7PGQdKIOAHJ-3" edge="1">
          <mxGeometry relative="1" as="geometry" />
        </mxCell>
        <mxCell id="qYjdrTXR6AYdo6lmm8bT-1" value="&lt;div style=&quot;font-size: 20px;&quot;&gt;&lt;font style=&quot;font-size: 20px;&quot;&gt;avm_waitrequest&lt;/font&gt;&lt;/div&gt;&lt;div style=&quot;font-size: 20px;&quot;&gt;&lt;font style=&quot;font-size: 20px;&quot;&gt;readdata_enable&lt;br&gt;&lt;/font&gt;&lt;/div&gt;" style="rounded=0;whiteSpace=wrap;html=1;" parent="1" vertex="1">
          <mxGeometry x="140" y="960" width="200" height="60" as="geometry" />
        </mxCell>
        <mxCell id="qYjdrTXR6AYdo6lmm8bT-2" value="&lt;font style=&quot;font-size: 20px;&quot;&gt;READ_WAIT_2&lt;/font&gt;" style="rounded=0;whiteSpace=wrap;html=1;" parent="1" vertex="1">
          <mxGeometry x="140" y="920" width="200" height="40" as="geometry" />
        </mxCell>
        <mxCell id="y8BEp6VOh7PGQdKIOAHJ-5" style="edgeStyle=orthogonalEdgeStyle;rounded=0;orthogonalLoop=1;jettySize=auto;html=1;exitX=0;exitY=0.5;exitDx=0;exitDy=0;" parent="1" source="y8BEp6VOh7PGQdKIOAHJ-2" edge="1">
          <mxGeometry relative="1" as="geometry">
            <mxPoint x="240" y="420" as="targetPoint" />
            <Array as="points">
              <mxPoint x="60" y="1170" />
              <mxPoint x="60" y="420" />
            </Array>
          </mxGeometry>
        </mxCell>
        <mxCell id="y8BEp6VOh7PGQdKIOAHJ-2" value="&lt;div style=&quot;font-size: 20px;&quot;&gt;&lt;font style=&quot;font-size: 20px;&quot;&gt;avm_readdatavalid&lt;br&gt;&lt;/font&gt;&lt;/div&gt;&lt;div&gt;&lt;div style=&quot;font-size: 20px;&quot;&gt;&lt;font style=&quot;font-size: 20px;&quot;&gt;writedata_enable&lt;/font&gt;&lt;/div&gt;&lt;div style=&quot;font-size: 20px;&quot;&gt;&lt;font style=&quot;font-size: 20px;&quot;&gt;address_enable&lt;font style=&quot;font-size: 20px;&quot;&gt;&lt;br&gt;&lt;/font&gt;&lt;/font&gt;&lt;/div&gt;&lt;/div&gt;" style="rounded=0;whiteSpace=wrap;html=1;" parent="1" vertex="1">
          <mxGeometry x="140" y="1130" width="200" height="80" as="geometry" />
        </mxCell>
        <mxCell id="y8BEp6VOh7PGQdKIOAHJ-3" value="&lt;font style=&quot;font-size: 20px;&quot;&gt;READ_VALID&lt;/font&gt;" style="rounded=0;whiteSpace=wrap;html=1;" parent="1" vertex="1">
          <mxGeometry x="140" y="1090" width="200" height="40" as="geometry" />
        </mxCell>
        <mxCell id="BG6pBBM5SffL5Xh3gY_b-3" style="edgeStyle=orthogonalEdgeStyle;rounded=0;orthogonalLoop=1;jettySize=auto;html=1;exitX=1;exitY=0.5;exitDx=0;exitDy=0;" parent="1" source="y8BEp6VOh7PGQdKIOAHJ-7" edge="1">
          <mxGeometry relative="1" as="geometry">
            <mxPoint x="520" y="330" as="targetPoint" />
            <Array as="points">
              <mxPoint x="700" y="690" />
              <mxPoint x="700" y="330" />
            </Array>
          </mxGeometry>
        </mxCell>
        <mxCell id="y8BEp6VOh7PGQdKIOAHJ-7" value="&lt;div style=&quot;font-size: 20px;&quot;&gt;&lt;font style=&quot;font-size: 20px;&quot;&gt;avm_waitrequest&lt;/font&gt;&lt;/div&gt;&lt;div style=&quot;font-size: 20px;&quot;&gt;&lt;font style=&quot;font-size: 20px;&quot;&gt;blockram_wren&lt;br&gt;&lt;/font&gt;&lt;/div&gt;" style="rounded=0;whiteSpace=wrap;html=1;" parent="1" vertex="1">
          <mxGeometry x="420" y="660" width="200" height="60" as="geometry" />
        </mxCell>
        <mxCell id="y8BEp6VOh7PGQdKIOAHJ-8" value="&lt;font style=&quot;font-size: 20px;&quot;&gt;WRITE_CMD&lt;/font&gt;" style="rounded=0;whiteSpace=wrap;html=1;" parent="1" vertex="1">
          <mxGeometry x="420" y="620" width="200" height="40" as="geometry" />
        </mxCell>
      </root>
    </mxGraphModel>
  </diagram>
</mxfile>
